<?xml version="1.0" encoding="iso-8859-1"?>
<!-- Generator: Adobe Illustrator 19.0.0, SVG Export Plug-In . SVG Version: 6.00 Build 0)  -->
<svg version="1.1" id="Layer_1" xmlns="http://www.w3.org/2000/svg" xmlns:xlink="http://www.w3.org/1999/xlink" x="0px" y="0px"
	 viewBox="0 0 512.003 512.003" style="enable-background:new 0 0 512.003 512.003;" xml:space="preserve">
<g>
	<g>
		<path d="M511.216,141.501c-1.4-3.021-4.412-4.966-7.748-4.966h-25.6v-128c0-4.719-3.814-8.533-8.533-8.533H332.801
			c-4.719,0-8.533,3.814-8.533,8.533v34.133c0,4.719,3.814,8.533,8.533,8.533h93.867v85.333h-25.6c-3.337,0-6.357,1.946-7.748,4.966
			s-0.896,6.588,1.271,9.114l51.2,59.733c1.621,1.894,3.985,2.987,6.477,2.987c2.492,0,4.855-1.092,6.477-2.987l51.2-59.733
			C512.121,148.089,512.616,144.522,511.216,141.501z M452.268,191.694l-32.648-38.093h15.582c4.719,0,8.533-3.814,8.533-8.533
			v-102.4c0-4.719-3.814-8.533-8.533-8.533h-93.867V17.068h119.467v128c0,4.719,3.814,8.533,8.533,8.533h15.582L452.268,191.694z"/>
	</g>
</g>
<g>
	<g>
		<path d="M179.201,460.801H85.335v-85.333h25.6c3.337,0,6.357-1.946,7.748-4.966c1.391-3.021,0.896-6.588-1.271-9.114l-51.2-59.733
			c-3.234-3.78-9.719-3.78-12.954,0l-51.2,59.733c-2.176,2.526-2.671,6.093-1.271,9.114c1.399,3.021,4.412,4.966,7.748,4.966h25.6
			v128c0,4.719,3.814,8.533,8.533,8.533h136.533c4.719,0,8.533-3.814,8.533-8.533v-34.133
			C187.735,464.616,183.92,460.801,179.201,460.801z M170.668,494.935H51.201v-128c0-4.719-3.814-8.533-8.533-8.533H27.086
			l32.649-38.093l32.649,38.093H76.801c-4.719,0-8.533,3.814-8.533,8.533v102.4c0,4.719,3.814,8.533,8.533,8.533h93.867V494.935z"/>
	</g>
</g>
<g>
	<g>
		<path d="M503.468,230.401H230.401c-4.719,0-8.533,3.814-8.533,8.533v264.533c0,4.719,3.814,8.533,8.533,8.533h273.067
			c4.719,0,8.533-3.814,8.533-8.533V238.935C512.001,234.216,508.187,230.401,503.468,230.401z M494.935,494.935h-256V247.468h256
			V494.935z"/>
	</g>
</g>
<g>
	<g>
		<path d="M391.289,464.897L271.822,268.631c-1.988-3.277-5.931-4.83-9.591-3.78c-3.678,1.032-6.229,4.395-6.229,8.218v196.267
			c0,4.719,3.814,8.533,8.533,8.533h119.467c3.081,0,5.922-1.664,7.441-4.352C392.953,470.828,392.893,467.534,391.289,464.897z
			 M273.068,460.801V303.498l95.753,157.303H273.068z"/>
	</g>
</g>
<g>
	<g>
		<path d="M298.668,0.001H8.535c-4.719,0-8.533,3.814-8.533,8.533v256c0,4.719,3.814,8.533,8.533,8.533h145.067
			c2.27,0,4.437-0.896,6.033-2.5l82.833-82.833h56.201c4.719,0,8.533-3.814,8.533-8.533V8.535
			C307.201,3.816,303.387,0.001,298.668,0.001z M290.135,170.668h-51.2c-2.27,0-4.437,0.896-6.033,2.5l-82.833,82.833H17.068V17.068
			h273.067V170.668z"/>
	</g>
</g>
<g>
</g>
<g>
</g>
<g>
</g>
<g>
</g>
<g>
</g>
<g>
</g>
<g>
</g>
<g>
</g>
<g>
</g>
<g>
</g>
<g>
</g>
<g>
</g>
<g>
</g>
<g>
</g>
<g>
</g>
</svg>
