<?xml version="1.0" standalone="no"?>
<!DOCTYPE svg PUBLIC "-//W3C//DTD SVG 20010904//EN"
 "http://www.w3.org/TR/2001/REC-SVG-20010904/DTD/svg10.dtd">
<svg version="1.0" xmlns="http://www.w3.org/2000/svg"
 width="3529.000000pt" height="3093.000000pt" viewBox="0 0 3529.000000 3093.000000"
 preserveAspectRatio="xMidYMid meet">

<g transform="translate(0.000000,3093.000000) scale(0.100000,-0.100000)"
fill="#000000" stroke="none">
<path d="M12558 22486 c-35 -18 -47 -53 -38 -111 5 -27 9 -1814 9 -3971 0
-2156 3 -3928 7 -3937 9 -23 47 -31 85 -18 45 15 1463 15 1524 0 52 -13 90 -6
99 18 8 21 8 4564 0 4728 -8 151 -3 160 85 160 53 -1 64 -4 91 -30 16 -16 30
-33 30 -38 0 -14 90 -138 105 -143 7 -3 42 -44 78 -92 35 -48 82 -106 103
-128 22 -22 62 -74 89 -114 28 -40 59 -78 71 -86 11 -8 47 -49 80 -91 32 -43
82 -102 110 -133 28 -30 61 -73 75 -95 13 -22 46 -65 74 -96 27 -30 75 -86
105 -124 30 -37 65 -78 78 -89 13 -11 39 -43 58 -71 19 -27 56 -76 82 -107 26
-31 70 -85 97 -119 28 -34 80 -95 118 -136 37 -41 86 -102 108 -135 23 -33 56
-74 73 -92 18 -17 55 -60 82 -96 27 -36 80 -99 117 -140 38 -41 76 -88 84
-105 9 -16 51 -68 93 -115 42 -47 97 -114 123 -150 25 -36 62 -81 82 -100 21
-19 59 -67 86 -106 26 -39 68 -89 92 -110 25 -22 66 -70 92 -109 26 -38 72
-97 101 -130 70 -78 248 -292 299 -361 61 -81 154 -194 205 -249 26 -27 55
-62 66 -76 10 -15 53 -69 95 -120 41 -52 88 -112 105 -134 16 -22 70 -86 121
-142 51 -57 93 -107 93 -112 0 -6 24 -36 53 -68 29 -32 85 -102 125 -155 40
-53 86 -108 104 -123 17 -15 51 -54 74 -88 54 -77 157 -182 195 -197 22 -10
40 -10 76 -1 34 9 223 12 692 10 l645 -2 19 24 c14 18 17 33 13 61 -11 65 -7
7810 3 7846 11 38 1 76 -23 85 -9 4 -395 7 -858 7 l-842 2 -18 -22 c-21 -25
-22 -38 -8 -75 7 -17 10 -844 10 -2397 1 -2215 0 -2372 -16 -2389 -21 -23 -83
-25 -123 -5 -36 19 -105 94 -129 143 -11 21 -42 63 -69 94 -26 31 -78 94 -115
140 -37 46 -113 138 -167 204 -154 185 -290 353 -345 425 -27 36 -72 90 -100
121 -56 62 -142 165 -196 236 -37 48 -116 143 -240 290 -93 108 -165 199 -207
260 -18 26 -56 72 -86 102 -29 31 -71 81 -94 111 -22 30 -67 85 -99 121 -32
37 -70 86 -84 109 -14 23 -50 68 -81 99 -30 31 -76 85 -101 121 -25 36 -60 79
-78 95 -18 17 -47 53 -65 81 -18 28 -59 80 -92 115 -33 35 -70 80 -83 99 -14
19 -52 65 -86 101 -34 37 -71 84 -82 106 -11 22 -45 64 -75 95 -30 30 -70 79
-89 109 -19 30 -60 77 -91 105 -31 29 -70 76 -88 105 -17 30 -57 83 -88 118
-31 35 -73 87 -95 115 -21 28 -66 81 -100 117 -66 72 -94 107 -141 174 -44 63
-130 166 -219 264 -43 47 -90 104 -105 126 -14 22 -41 58 -61 81 -19 23 -57
70 -85 104 -67 85 -144 172 -168 189 -16 12 -130 14 -686 12 -366 -1 -683 3
-703 8 -24 6 -44 5 -60 -3z"/>
<path d="M31527 22470 c-18 -15 -18 -41 -18 -674 1 -759 -6 -702 91 -692 30 3
373 6 763 7 680 2 708 1 728 -17 12 -10 28 -32 38 -49 15 -28 16 -285 18
-3299 2 -1881 6 -3273 11 -3278 12 -12 1735 -10 1767 2 37 14 45 38 35 115 -6
40 -9 1706 -10 3901 0 3444 2 3836 16 3883 14 48 14 55 0 76 -9 14 -30 26 -48
30 -18 3 -784 6 -1702 8 -1482 2 -1672 0 -1689 -13z"/>
<path d="M3603 21909 c-62 -18 -67 -34 -87 -283 -9 -125 -24 -253 -32 -284
-21 -79 -50 -307 -64 -492 -11 -159 -39 -369 -65 -497 -8 -40 -15 -96 -15
-125 0 -29 -16 -174 -34 -323 -19 -148 -38 -304 -41 -345 -4 -41 -15 -122 -25
-180 -10 -58 -22 -133 -25 -167 -8 -77 -41 -144 -78 -161 -23 -11 -245 -13
-1195 -13 -991 1 -1170 -1 -1185 -13 -18 -14 -19 -47 -19 -706 0 -597 2 -694
15 -707 12 -13 156 -15 1100 -13 966 1 1090 -1 1117 -15 46 -24 49 -55 22
-235 -6 -41 -18 -129 -27 -195 -8 -66 -24 -183 -35 -260 -11 -77 -24 -192 -29
-255 -6 -63 -17 -142 -25 -175 -9 -32 -16 -76 -16 -96 0 -21 -7 -73 -15 -116
-8 -43 -17 -116 -20 -163 -8 -120 -43 -402 -61 -485 -15 -68 -21 -113 -45
-370 -6 -66 -15 -140 -20 -165 -15 -68 -29 -183 -39 -319 -11 -144 -33 -196
-97 -226 -45 -21 79 -20 -1251 -17 -970 2 -1095 1 -1122 -13 -17 -9 -30 -21
-31 -28 0 -6 -2 -295 -4 -642 -1 -346 -4 -650 -6 -674 -4 -38 -1 -46 24 -65
l28 -21 1086 -1 c1060 -2 1086 -2 1112 -21 14 -11 30 -35 35 -52 11 -37 -5
-173 -35 -313 -10 -48 -19 -109 -19 -135 0 -47 -15 -181 -46 -413 -9 -63 -20
-167 -26 -230 -5 -63 -16 -144 -24 -180 -19 -88 -43 -285 -54 -458 -6 -79 -14
-162 -19 -185 -6 -23 -19 -107 -30 -187 -11 -80 -26 -161 -32 -180 -6 -19 -14
-101 -19 -182 -4 -80 -13 -168 -20 -195 -7 -28 -10 -62 -6 -76 9 -38 58 -61
110 -52 50 8 1186 7 1237 -1 30 -5 42 -1 68 23 l33 28 9 150 c5 83 20 220 34
305 45 278 54 344 60 430 7 121 23 252 52 425 14 83 29 202 33 265 5 63 18
183 30 265 21 156 63 500 80 665 20 182 41 257 83 284 22 15 159 16 1413 17
971 0 1397 -3 1417 -10 52 -20 70 -102 43 -197 -8 -27 -17 -80 -21 -119 -3
-38 -12 -101 -20 -140 -16 -84 -41 -301 -55 -480 -5 -71 -17 -161 -25 -200
-20 -97 -45 -295 -55 -454 -5 -73 -12 -141 -14 -150 -3 -9 -15 -90 -26 -181
-11 -91 -24 -179 -29 -196 -5 -17 -12 -68 -15 -115 -9 -109 -33 -300 -53 -414
-27 -157 -27 -154 -8 -175 18 -19 36 -20 707 -20 l689 0 24 25 c21 20 25 34
25 87 0 35 6 104 14 153 8 50 19 137 26 195 11 99 16 135 39 290 9 63 24 196
56 505 21 206 43 356 61 413 8 26 19 115 24 198 14 222 20 279 41 384 10 52
23 145 29 205 11 114 44 301 61 345 21 55 -39 52 1224 51 1109 -1 1174 0 1194
16 l22 18 0 690 0 690 -27 24 c-24 20 -35 22 -78 17 -28 -3 -512 -6 -1075 -6
-1110 -1 -1052 -4 -1082 52 -17 32 -12 115 11 188 13 40 25 113 30 190 15 208
30 351 45 426 8 39 21 136 30 215 9 79 22 189 30 244 39 288 66 517 85 743 6
67 17 141 25 163 8 22 24 136 35 252 46 488 55 532 114 587 l28 25 1175 2
c1026 1 1178 3 1191 16 13 13 14 103 13 679 -1 364 -1 673 -1 686 0 12 -9 31
-20 42 -21 21 -27 21 -1091 20 -962 -1 -1073 0 -1094 14 -46 30 -58 60 -52
129 10 121 57 463 72 517 8 30 15 75 15 100 0 97 32 412 55 535 13 72 27 166
30 210 3 44 13 108 21 143 7 35 14 95 14 135 0 39 7 112 15 161 20 120 54 391
65 519 5 56 16 129 24 161 9 33 19 94 22 135 6 73 5 77 -20 100 -25 23 -27 24
-101 12 -56 -9 -239 -12 -678 -10 l-601 3 -19 -26 c-13 -17 -23 -58 -31 -130
-8 -58 -16 -110 -20 -116 -6 -10 -28 -202 -46 -397 -10 -108 -36 -317 -50
-400 -5 -33 -19 -136 -30 -230 -11 -93 -25 -186 -30 -205 -11 -35 -18 -106
-45 -410 -8 -91 -23 -213 -35 -270 -11 -58 -20 -125 -20 -150 0 -25 -6 -81
-14 -125 -8 -44 -19 -132 -23 -196 -8 -106 -12 -120 -37 -154 -15 -20 -39 -41
-53 -46 -16 -6 -542 -10 -1407 -10 l-1381 0 -27 31 c-35 38 -37 93 -8 230 11
52 24 154 30 225 6 72 17 177 25 235 8 58 24 186 35 285 26 231 33 284 63 490
14 94 30 231 37 305 17 203 49 457 61 488 7 15 20 119 30 232 11 113 22 230
25 260 8 80 -7 96 -83 91 -91 -7 -1195 -7 -1228 0 -16 4 -44 2 -62 -2z m3719
-4359 c16 -19 19 -35 15 -80 -10 -119 -69 -608 -102 -845 -19 -137 -42 -322
-50 -410 -8 -88 -26 -239 -40 -335 -48 -331 -54 -386 -80 -640 -14 -140 -30
-280 -35 -310 -5 -30 -16 -113 -25 -185 -9 -71 -23 -144 -30 -161 -28 -68 71
-64 -1443 -64 -1364 0 -1369 0 -1395 20 -36 28 -43 76 -23 154 15 61 32 192
56 436 7 63 23 187 36 275 24 158 49 359 99 775 14 118 30 244 36 280 14 88
43 313 79 620 50 416 59 458 108 485 23 12 216 14 1400 12 l1374 -2 20 -25z"/>
<path d="M24350 20650 c-283 -25 -354 -34 -430 -55 -47 -13 -143 -40 -215 -58
-218 -58 -301 -83 -357 -110 -29 -15 -80 -33 -112 -42 -33 -8 -76 -26 -96 -40
-19 -13 -64 -36 -99 -50 -35 -15 -75 -34 -89 -43 -14 -9 -47 -28 -73 -42 -112
-59 -322 -201 -432 -292 -109 -90 -310 -286 -362 -353 -21 -27 -58 -70 -81
-95 -80 -86 -229 -320 -310 -490 -20 -41 -50 -104 -68 -140 -18 -36 -43 -96
-56 -135 -12 -38 -38 -106 -56 -150 -23 -53 -42 -127 -59 -220 -13 -77 -31
-165 -39 -195 -38 -147 -46 -258 -46 -620 0 -380 7 -467 56 -660 13 -52 28
-133 34 -180 7 -47 23 -112 36 -145 14 -33 40 -103 59 -155 44 -127 124 -306
184 -410 27 -47 56 -101 66 -120 25 -51 126 -200 135 -200 5 0 30 -30 56 -67
132 -187 380 -429 541 -528 26 -16 66 -46 88 -66 52 -48 219 -156 264 -170 19
-6 53 -26 77 -44 23 -18 65 -38 93 -45 28 -7 68 -23 88 -37 34 -23 96 -47 313
-124 47 -16 103 -38 125 -48 45 -21 113 -37 195 -47 64 -7 136 -23 235 -52
133 -38 775 -65 1040 -43 72 6 180 14 240 17 66 3 132 13 165 24 65 21 231 56
313 65 32 4 83 18 113 32 49 22 131 53 344 128 59 21 143 59 255 118 22 11 66
33 99 49 32 16 103 60 157 98 54 38 111 76 126 85 16 8 55 38 88 65 33 28 83
68 111 89 57 44 254 236 330 322 49 55 74 87 159 206 130 182 280 460 330 613
15 47 35 101 45 120 10 19 25 69 35 110 9 41 33 124 53 185 27 86 37 134 43
225 4 63 12 144 17 180 37 232 40 530 7 765 -8 61 -18 160 -21 220 -6 115 -15
156 -58 268 -14 38 -33 107 -42 155 -9 48 -26 107 -38 132 -13 25 -44 99 -70
165 -26 66 -60 143 -75 170 -16 28 -52 93 -81 145 -29 52 -66 113 -84 134 -17
22 -51 70 -76 107 -65 98 -152 208 -201 254 -23 22 -76 74 -118 117 -69 69
-173 161 -278 243 -41 33 -179 125 -257 171 -174 104 -208 123 -238 133 -18 6
-55 27 -83 45 -27 19 -78 42 -112 50 -35 9 -93 32 -130 51 -38 19 -79 35 -93
35 -28 0 -89 17 -200 54 -289 97 -616 136 -1110 134 -157 0 -323 -4 -370 -8z
m595 -1371 c156 -17 356 -72 470 -129 241 -120 328 -183 495 -357 139 -143
221 -267 319 -481 45 -97 124 -393 141 -524 14 -118 12 -434 -4 -558 -16 -121
-83 -380 -122 -472 -143 -340 -381 -619 -679 -796 -92 -55 -290 -139 -379
-162 -197 -50 -462 -64 -691 -35 -146 18 -212 34 -334 82 -361 141 -606 350
-835 713 -68 108 -152 328 -192 500 -50 222 -55 661 -9 880 89 421 312 784
632 1026 102 78 307 192 400 225 85 29 246 69 338 84 101 16 326 18 450 4z"/>
<path d="M29770 16475 c-88 -11 -114 -18 -154 -43 -27 -17 -68 -34 -91 -38
-27 -4 -67 -22 -103 -48 -115 -79 -211 -156 -233 -189 -13 -17 -43 -57 -67
-86 -66 -83 -99 -157 -136 -308 -50 -207 -60 -292 -47 -415 6 -57 16 -116 21
-133 5 -16 21 -77 36 -135 33 -125 75 -217 137 -297 94 -122 300 -293 377
-313 25 -6 65 -23 90 -38 81 -47 398 -76 565 -51 39 5 103 14 144 19 49 7 90
19 125 39 28 16 68 34 88 41 38 11 102 56 211 147 67 56 160 169 191 233 12
25 33 65 48 90 20 33 37 95 64 230 34 169 36 195 31 300 -7 139 -57 387 -90
439 -12 20 -32 57 -44 83 -12 26 -39 66 -60 90 -21 24 -51 58 -66 76 -66 81
-235 199 -332 230 -37 13 -80 31 -95 42 -60 43 -389 62 -610 35z"/>
<path d="M34550 13159 c-25 -4 -5173 -8 -11440 -8 -10755 -1 -11396 -2 -11408
-18 -10 -14 -12 -373 -10 -1764 l3 -1747 25 -27 c23 -24 29 -26 70 -19 25 4
5148 8 11385 10 10431 4 11344 3 11388 -12 l49 -16 32 31 31 31 5 1738 c4
1354 2 1743 -7 1763 -7 15 -26 32 -44 38 -18 6 -32 10 -33 10 -1 -1 -21 -5
-46 -10z m-13439 -700 c140 -27 244 -62 315 -105 33 -20 79 -46 104 -59 62
-32 231 -189 293 -274 124 -168 157 -237 215 -456 23 -87 26 -120 26 -255 1
-160 -7 -206 -64 -397 -63 -207 -261 -460 -463 -591 -79 -51 -265 -133 -372
-164 -89 -26 -415 -37 -533 -18 -122 19 -349 110 -465 186 -206 133 -422 424
-478 643 -51 197 -60 350 -30 531 24 146 58 246 122 363 65 116 108 173 200
267 97 99 145 136 257 199 124 69 173 88 322 121 166 38 390 41 551 9z m8189
-13 c140 -32 199 -54 292 -106 84 -48 97 -63 98 -111 0 -46 -65 -176 -102
-202 -33 -24 -81 -17 -129 18 -177 130 -635 163 -837 61 -68 -34 -144 -119
-170 -189 -27 -71 -27 -93 -3 -156 32 -85 84 -137 189 -188 96 -46 213 -85
292 -98 166 -26 454 -122 564 -188 208 -124 308 -282 310 -487 2 -165 -59
-304 -189 -435 -59 -59 -89 -80 -185 -127 -195 -94 -259 -108 -506 -108 -187
0 -295 11 -383 40 -241 78 -415 161 -467 223 -35 41 -31 83 16 174 46 88 61
103 104 103 33 0 66 -18 138 -72 56 -43 141 -77 295 -120 113 -32 126 -33 293
-33 154 0 183 3 245 22 112 36 185 82 228 143 106 152 65 298 -116 408 -54 32
-142 58 -567 168 -333 85 -557 267 -610 493 -16 70 -8 270 14 330 41 112 140
237 250 315 89 63 150 91 251 115 159 38 177 40 375 37 169 -3 210 -7 310 -30z
m-16378 -7 c72 -19 68 54 68 -1140 l0 -1071 -34 -34 -34 -34 -106 0 c-60 0
-116 5 -131 12 -57 26 -55 -25 -55 1128 0 1173 -3 1120 62 1139 45 13 185 13
230 0z m1295 -5 c20 -10 65 -55 111 -112 42 -52 114 -141 160 -196 46 -56 108
-134 139 -174 30 -41 89 -115 130 -165 63 -78 278 -346 363 -453 14 -17 70
-86 125 -153 55 -67 123 -155 150 -195 81 -120 110 -144 149 -124 17 9 18 18
12 102 -4 50 -7 389 -7 754 -1 739 -4 701 68 721 48 14 167 14 214 1 76 -21
70 79 70 -1133 0 -855 -2 -1090 -12 -1105 -20 -33 -54 -42 -148 -42 -80 0 -90
2 -126 28 -21 16 -52 47 -69 69 -17 22 -76 96 -131 163 -55 67 -118 147 -140
176 -22 29 -85 108 -139 176 -55 68 -120 150 -145 182 -25 33 -64 80 -86 105
-23 25 -54 64 -70 86 -16 22 -54 69 -85 105 -31 36 -76 92 -100 125 -24 33
-60 78 -79 100 -20 22 -67 84 -104 137 -75 107 -119 151 -150 146 -36 -5 -42
-30 -29 -120 16 -109 17 -1400 2 -1429 -20 -36 -63 -49 -170 -49 -107 0 -150
13 -170 49 -14 28 -14 2165 1 2192 6 12 25 27 42 34 46 20 180 19 224 -1z
m3858 -4 c124 -16 200 -38 330 -97 137 -63 184 -94 313 -211 140 -128 264
-324 306 -488 18 -70 36 -248 36 -354 0 -93 -25 -268 -46 -335 -104 -317 -405
-616 -704 -701 -52 -14 -133 -38 -180 -52 l-85 -26 -547 -4 c-589 -3 -591 -3
-618 48 -15 29 -15 2162 0 2190 24 44 40 45 591 42 288 -1 560 -7 604 -12z
m5062 -3 c27 -14 89 -85 206 -236 15 -19 43 -53 62 -76 46 -53 251 -311 278
-350 11 -16 44 -55 72 -86 28 -31 73 -85 101 -121 27 -35 78 -100 112 -144 35
-43 103 -128 150 -188 48 -59 106 -131 130 -158 23 -27 42 -53 42 -57 0 -5 25
-41 56 -80 46 -59 60 -71 84 -71 40 0 46 30 32 140 -15 109 -17 1346 -2 1384
18 49 53 61 176 61 125 0 157 -11 174 -58 7 -20 10 -377 10 -1089 0 -1166 3
-1104 -61 -1127 -18 -6 -65 -11 -106 -11 -116 0 -126 7 -288 211 -16 21 -74
93 -128 161 -53 68 -126 159 -162 203 -77 95 -180 223 -227 282 -18 23 -114
143 -213 265 -99 123 -215 271 -258 330 -104 144 -154 178 -179 124 -8 -18 -8
-45 1 -101 7 -50 11 -297 11 -740 l0 -665 -29 -32 c-29 -33 -30 -33 -136 -36
-69 -3 -117 0 -136 8 -63 26 -59 -48 -59 1127 0 825 3 1078 12 1099 7 15 26
33 43 41 41 18 189 12 232 -10z m4208 -1 c43 -28 60 -160 31 -231 -31 -74 36
-70 -1158 -60 -34 0 -53 -6 -70 -22 l-23 -22 1 -288 c1 -158 2 -291 3 -295 4
-29 54 -32 536 -29 320 2 499 -1 517 -8 47 -18 63 -55 63 -145 0 -132 -26
-161 -145 -160 -30 0 -253 1 -494 3 -431 2 -439 2 -459 -18 -20 -20 -21 -32
-21 -318 -1 -287 0 -299 20 -322 l20 -24 595 2 c461 2 601 -1 623 -10 42 -20
56 -57 56 -154 0 -100 -16 -138 -63 -155 -43 -15 -1513 -14 -1556 1 -64 23
-61 -39 -61 1134 0 782 3 1072 11 1088 14 26 35 40 68 47 14 3 353 4 754 3
642 -1 731 -3 752 -17z m3496 14 c76 -21 70 79 70 -1130 0 -973 -2 -1085 -16
-1107 -23 -35 -54 -43 -163 -43 -102 0 -130 9 -152 51 -8 13 -11 359 -10 1097
0 1030 1 1078 18 1102 11 13 30 28 43 31 38 11 170 10 210 -1z m2031 -12 c31
-20 83 -111 133 -233 21 -49 54 -124 76 -165 21 -41 58 -120 83 -175 25 -55
86 -189 136 -298 49 -109 90 -202 90 -205 0 -8 96 -214 166 -357 30 -61 54
-114 54 -119 0 -4 29 -70 64 -145 35 -75 87 -188 114 -251 28 -63 65 -140 81
-170 36 -64 39 -102 11 -130 -18 -18 -33 -20 -144 -20 -112 0 -126 2 -157 23
-38 26 -98 126 -135 229 -39 106 -119 271 -142 291 -19 18 -51 19 -575 19
-380 0 -561 -3 -575 -11 -25 -13 -54 -59 -80 -126 -51 -130 -155 -362 -170
-379 -32 -36 -76 -46 -201 -46 -113 0 -121 1 -135 22 -24 34 -19 79 15 133 17
27 53 101 80 164 28 64 65 148 83 186 58 120 202 437 277 610 22 50 60 131 84
180 25 50 45 94 45 99 0 8 58 135 176 387 35 75 64 139 64 143 0 4 18 45 40
90 21 46 55 118 74 160 31 68 40 79 78 97 36 17 60 19 153 17 84 -2 117 -7
137 -20z"/>
<path d="M20805 12153 c-205 -18 -278 -39 -412 -118 -169 -101 -290 -258 -359
-465 -27 -81 -29 -94 -29 -265 0 -171 2 -184 28 -260 69 -197 156 -320 304
-426 105 -76 167 -103 319 -140 162 -38 242 -38 400 1 152 37 215 64 312 137
144 108 214 201 281 369 53 134 65 209 58 363 -7 154 -23 215 -91 356 -47 96
-65 122 -142 200 -143 145 -299 223 -479 239 -125 12 -149 13 -190 9z"/>
<path d="M17272 12124 c-16 -6 -32 -20 -36 -30 -12 -31 -8 -1551 3 -1573 6
-11 21 -23 33 -27 32 -11 637 -5 731 7 239 31 443 152 569 335 80 118 132 307
132 479 -1 189 -63 380 -166 509 -100 127 -256 224 -435 272 -104 28 -119 29
-610 37 -135 2 -201 0 -221 -9z"/>
<path d="M32687 11992 c-9 -9 -30 -58 -48 -107 -32 -93 -78 -200 -154 -365
-24 -52 -60 -135 -80 -185 -20 -49 -53 -119 -74 -155 -46 -78 -57 -118 -38
-144 14 -18 33 -19 425 -19 432 0 442 1 442 44 0 11 -26 72 -59 137 -32 65
-75 161 -96 212 -20 52 -70 167 -110 255 -40 89 -83 194 -96 234 -34 104 -73
137 -112 93z"/>
</g>
</svg>
